<?xml version="1.0" encoding="UTF-8"?>
<svg enable-background="new 0 0 158 158" version="1.1" viewBox="0 0 158 158" xml:space="preserve" xmlns="http://www.w3.org/2000/svg">
<style type="text/css">
	.st0{fill:#FFDA8C;}
	.st1{fill:#FFFFFF;}
	.st2{fill:#EFC469;}
	.st3{fill:#64310F;}
</style>
<path class="st0" d="m116.6 41.6c-20.6-20.7-54.1-20.8-74.9-0.2l-1.2 1.2-15.5-15.6c28.7-29.8 76.2-30.7 106-2l1.6 1.6-16 15zm-37.6 90.4c14.2 0 27.9-5.7 37.8-15.9l14.5 16.6c-29.3 28.7-76.3 28.4-105.3-0.7l15.6-15.6c9.9 10 23.4 15.6 37.4 15.6z"/>
<path class="st1" d="m128 28.9c-28-25.4-70.8-25.2-98.6 0.5l-3-3c27.9-29.1 74.1-30 103.1-2.1 0.6 0.5 1.1 1.1 1.6 1.6l-3.1 3z"/>
<path class="st2" d="m128.8 128.6c-28.3 26-71.8 25.7-99.7-0.6l-3.1 3.1c27.8 29.4 74.2 30.7 103.6 2.9l2.4-2.4-3.2-3z"/>
<path class="st3" d="m79 158c-43.6 0-79-35.4-79-79s35.4-79 79-79 79 35.4 79 79-35.4 79-79 79zm0-152c-40.3 0-73 32.7-73 73s32.7 73 73 73 73-32.7 73-73-32.7-73-73-73zm38.7 39.9c-1.3-1.5-2.7-3-4.2-4.3l19.9-19.7c1.4 1.4 2.8 2.8 4.2 4.3l-19.9 19.7zm-77.4-0.1l-20-19.7c1.3-1.5 2.7-2.9 4.2-4.3l19.9 19.7c-1.5 1.4-2.8 2.8-4.1 4.3zm5.2 71.6l-20 19.8c-1.5-1.3-2.9-2.8-4.2-4.2l19.9-19.7c1.4 1.4 2.8 2.8 4.3 4.1zm71.2-4.2l20 19.8c-1.4 1.5-2.8 2.9-4.2 4.2l-20-19.8c1.5-1.4 2.9-2.8 4.2-4.2zm-37.7-89.2c30.4 0 55 24.6 55 55s-24.6 55-55 55-55-24.6-55-55 24.6-55 55-55z"/>
<circle class="st1" cx="79" cy="79" r="49"/>
<path class="st1" d="M83,34c-27,0-49,21.9-49,48.9c0,12.1,4.4,23.7,12.4,32.7c-20.2-17.9-22.1-48.9-4.1-69.1  s48.9-22.1,69.1-4.1c1.5,1.3,2.8,2.7,4.1,4.1C106.6,38.4,95,34,83,34z"/>
<path class="st1" d="M79,128c-14,0-27.3-6-36.6-16.4c20.2,18,51.1,16.2,69.1-3.9c16.6-18.6,16.6-46.6,0-65.2  c20.2,18,22,48.9,4.1,69.1C106.3,122,93,128,79,128z"/>
</svg>
